<svg width="91" height="36" viewBox="0 0 91 36" fill="none" xmlns="http://www.w3.org/2000/svg">
<rect x="0.152954" y="0.272217" width="90" height="35" rx="12" fill="#70BDB8"/>
<path d="M47.3228 11.7272C44.4128 11.7272 42.5978 12.6722 42.5978 14.2772C42.5978 15.8672 44.4128 16.8122 47.3228 16.8122C50.2328 16.8122 52.0478 15.8672 52.0478 14.2772C52.0478 12.6722 50.2328 11.7272 47.3228 11.7272ZM47.3228 12.7022C49.4528 12.7022 50.7878 13.2872 50.7878 14.2772C50.7878 15.2672 49.4528 15.8522 47.3228 15.8522C45.1928 15.8522 43.8578 15.2672 43.8578 14.2772C43.8578 13.2872 45.1928 12.7022 47.3228 12.7022ZM42.7478 20.2772V24.7022H51.9278V20.2772H42.7478ZM50.7278 21.2522V23.7122H43.9478V21.2522H50.7278ZM41.2478 17.9672V18.9572H53.4128V17.9672H41.2478ZM62.4116 17.7572C60.4166 17.0672 59.0366 15.3122 59.0366 13.3772V12.0572H57.8066V13.3772C57.8066 15.3872 56.4416 17.2622 54.4166 17.9972L55.0466 18.9722C56.6216 18.3722 57.8516 17.1272 58.4366 15.5372C59.0366 17.0222 60.2516 18.1772 61.7966 18.7322L62.4116 17.7572ZM56.3366 21.2072H64.1066V24.8972H65.3366V20.2172H56.3366V21.2072ZM64.1066 11.4422V19.5272H65.3366V11.4422H64.1066ZM75.2804 17.9072C73.3304 17.2172 72.0104 15.5372 72.0104 13.7822V13.2872H74.9654V12.2822H67.7804V13.2872H70.7804V13.7972C70.7804 15.7022 69.3854 17.4872 67.3904 18.2072L68.0354 19.1672C69.6104 18.5972 70.8404 17.3672 71.4254 15.8222C72.0104 17.2022 73.1654 18.3272 74.6654 18.8672L75.2804 17.9072ZM70.8854 20.9372H77.2304V23.7122H70.8854V20.9372ZM69.6854 24.7022H78.4304V19.9622H69.6854V24.7022ZM77.1854 11.4272V14.8022H74.5304V15.8222H77.1854V19.3022H78.4304V11.4272H77.1854Z" fill="white"/>
<path d="M30.9804 10.7722H27.0804V7.77222C27.0804 7.22222 26.6304 6.77222 26.0804 6.77222C25.5304 6.77222 25.0804 7.22222 25.0804 7.77222V10.7722H21.1804C20.5904 10.7722 20.1304 11.2822 20.1804 11.8722L20.3004 13.0822C23.9804 13.9322 27.0804 16.5422 27.0804 20.7722L27.1004 28.7722H28.8004C29.6404 28.7722 30.3304 28.1222 30.4304 27.3022L31.9704 11.8722C32.0304 11.2822 31.5704 10.7722 30.9804 10.7722ZM24.0804 26.7722H11.0804C10.5304 26.7722 10.0804 27.2222 10.0804 27.7722C10.0804 28.3222 10.5304 28.7722 11.0804 28.7722H24.0804C24.6304 28.7722 25.0804 28.3222 25.0804 27.7722C25.0804 27.2222 24.6304 26.7722 24.0804 26.7722ZM11.1804 20.7722H23.9804C24.6004 20.7722 25.0904 20.2122 24.9704 19.6122C24.3204 16.3822 20.9504 14.7622 17.5804 14.7622C14.2104 14.7622 10.8504 16.3822 10.1904 19.6122C10.0704 20.2122 10.5704 20.7722 11.1804 20.7722ZM24.0804 22.7722H11.0804C10.5304 22.7722 10.0804 23.2222 10.0804 23.7722C10.0804 24.3222 10.5304 24.7722 11.0804 24.7722H24.0804C24.6304 24.7722 25.0804 24.3222 25.0804 23.7722C25.0804 23.2222 24.6304 22.7722 24.0804 22.7722Z" fill="white"/>
</svg>
