<svg width="56" height="77" viewBox="0 0 56 77" fill="none" xmlns="http://www.w3.org/2000/svg">
<g filter="url(#filter0_d_520_999)">
<path fill-rule="evenodd" clip-rule="evenodd" d="M44.8682 32.8792C46.8509 29.7745 48 26.086 48 22.1292C48 11.0835 39.0457 2.12915 28 2.12915C16.9543 2.12915 8 11.0835 8 22.1292C8 26.086 9.14908 29.7745 11.1318 32.8792H11.1125L28 62.1292L44.8875 32.8792H44.8682Z" fill="#70BDB8"/>
<path d="M37.9 14.1292H34V11.1292C34 10.5792 33.55 10.1292 33 10.1292C32.45 10.1292 32 10.5792 32 11.1292V14.1292H28.1C27.51 14.1292 27.05 14.6392 27.1 15.2292L27.22 16.4392C30.9 17.2892 34 19.8992 34 24.1292L34.02 32.1292H35.72C36.56 32.1292 37.25 31.4792 37.35 30.6592L38.89 15.2292C38.95 14.6392 38.49 14.1292 37.9 14.1292ZM31 30.1292H18C17.45 30.1292 17 30.5792 17 31.1292C17 31.6791 17.45 32.1292 18 32.1292H31C31.55 32.1292 32 31.6791 32 31.1292C32 30.5792 31.55 30.1292 31 30.1292ZM18.1 24.1292H30.9C31.52 24.1292 32.01 23.5692 31.89 22.9692C31.24 19.7392 27.87 18.1192 24.5 18.1192C21.13 18.1192 17.77 19.7392 17.11 22.9692C16.99 23.5692 17.49 24.1292 18.1 24.1292ZM31 26.1292H18C17.45 26.1292 17 26.5792 17 27.1292C17 27.6791 17.45 28.1292 18 28.1292H31C31.55 28.1292 32 27.6791 32 27.1292C32 26.5792 31.55 26.1292 31 26.1292Z" fill="white"/>
</g>
<defs>
<filter id="filter0_d_520_999" x="0" y="0.12915" width="56" height="76" filterUnits="userSpaceOnUse" color-interpolation-filters="sRGB">
<feFlood flood-opacity="0" result="BackgroundImageFix"/>
<feColorMatrix in="SourceAlpha" type="matrix" values="0 0 0 0 0 0 0 0 0 0 0 0 0 0 0 0 0 0 127 0" result="hardAlpha"/>
<feOffset dy="6"/>
<feGaussianBlur stdDeviation="4"/>
<feComposite in2="hardAlpha" operator="out"/>
<feColorMatrix type="matrix" values="0 0 0 0 0 0 0 0 0 0 0 0 0 0 0 0 0 0 0.25 0"/>
<feBlend mode="multiply" in2="BackgroundImageFix" result="effect1_dropShadow_520_999"/>
<feBlend mode="normal" in="SourceGraphic" in2="effect1_dropShadow_520_999" result="shape"/>
</filter>
</defs>
</svg>
